<svg width="1440" height="1330" viewBox="0 0 1440 1330" fill="none" xmlns="http://www.w3.org/2000/svg">
<ellipse cx="105.352" cy="1086.88" rx="0.452189" ry="0.383456" fill="#C4C4C4"/>
<ellipse cx="66.916" cy="1176.34" rx="0.904378" ry="0.767878" fill="#C4C4C4"/>
<ellipse cx="135.196" cy="951.736" rx="0.452189" ry="0.383456" fill="#C4C4C4"/>
<ellipse cx="162.328" cy="798.929" rx="0.452189" ry="0.383456" fill="#C4C4C4"/>
<ellipse cx="123.892" cy="1203.98" rx="0.904378" ry="0.767878" fill="#C4C4C4"/>
<ellipse cx="28.9321" cy="944.443" rx="0.904378" ry="0.767878" fill="#C4C4C4"/>
<ellipse cx="11.7489" cy="1106.46" rx="0.904378" ry="0.767878" fill="#C4C4C4"/>
<ellipse cx="267.236" cy="978.612" rx="0.452189" ry="0.383456" fill="#C4C4C4"/>
<ellipse cx="18.9841" cy="1243.15" rx="0.904378" ry="0.767878" fill="#C4C4C4"/>
<ellipse cx="63.2984" cy="1018.93" rx="0.904378" ry="0.767878" fill="#C4C4C4"/>
<ellipse cx="25.3145" cy="1214.74" rx="0.904378" ry="0.767878" fill="#C4C4C4"/>
<ellipse cx="317.881" cy="877.252" rx="0.452189" ry="0.383456" fill="#C4C4C4"/>
<ellipse cx="112.587" cy="888.002" rx="0.452189" ry="0.383456" fill="#C4C4C4"/>
<ellipse cx="269.949" cy="950.2" rx="0.452189" ry="0.383456" fill="#C4C4C4"/>
<ellipse cx="164.137" cy="859.591" rx="0.452189" ry="0.383456" fill="#C4C4C4"/>
<ellipse cx="186.746" cy="915.646" rx="0.452189" ry="0.383456" fill="#C4C4C4"/>
<ellipse cx="1057.21" cy="984.372" rx="0.904378" ry="0.767878" fill="#C4C4C4"/>
<ellipse cx="1048.17" cy="954.424" rx="0.904378" ry="0.767878" fill="#C4C4C4"/>
<ellipse cx="278.54" cy="860.743" rx="0.904378" ry="0.767878" fill="#C4C4C4"/>
<ellipse cx="699.076" cy="698.721" rx="0.904378" ry="0.767878" fill="#C4C4C4"/>
<ellipse cx="309.289" cy="937.531" rx="0.904378" ry="0.767878" fill="#C4C4C4"/>
<ellipse cx="280.349" cy="924.477" rx="0.904378" ry="0.767878" fill="#C4C4C4"/>
<ellipse cx="789.514" cy="668.773" rx="0.904378" ry="0.767878" fill="#C4C4C4"/>
<ellipse cx="193.529" cy="909.887" rx="0.904378" ry="0.767878" fill="#C4C4C4"/>
<ellipse cx="627.63" cy="826.957" rx="0.904378" ry="0.767878" fill="#C4C4C4"/>
<ellipse cx="1112.83" cy="1099.17" rx="0.452189" ry="0.383456" fill="#C4C4C4"/>
<ellipse cx="713.094" cy="675.301" rx="0.452189" ry="0.383456" fill="#C4C4C4"/>
<ellipse cx="807.149" cy="706.783" rx="0.452189" ry="0.383456" fill="#C4C4C4"/>
<ellipse cx="1149.91" cy="700.641" rx="0.452189" ry="0.383456" fill="#C4C4C4"/>
<ellipse cx="173.18" cy="1040.04" rx="0.452189" ry="0.383456" fill="#C4C4C4"/>
<ellipse cx="1106.5" cy="937.146" rx="0.452189" ry="0.383456" fill="#C4C4C4"/>
<ellipse cx="601.855" cy="758.999" rx="0.452189" ry="0.383456" fill="#C4C4C4"/>
<ellipse cx="1108.31" cy="1069.99" rx="0.452189" ry="0.383456" fill="#C4C4C4"/>
<ellipse cx="647.979" cy="729.82" rx="0.452189" ry="0.383456" fill="#C4C4C4"/>
<ellipse cx="641.648" cy="679.14" rx="0.452189" ry="0.383456" fill="#C4C4C4"/>
<ellipse cx="373.5" cy="988.979" rx="0.904378" ry="0.767878" fill="#C4C4C4"/>
<ellipse cx="269.949" cy="1072.29" rx="0.452189" ry="0.383456" fill="#C4C4C4"/>
<ellipse cx="612.708" cy="682.979" rx="0.452189" ry="0.383456" fill="#C4C4C4"/>
<ellipse cx="583.768" cy="669.925" rx="0.452189" ry="0.383456" fill="#C4C4C4"/>
<ellipse cx="391.135" cy="700.641" rx="0.452189" ry="0.383456" fill="#C4C4C4"/>
<ellipse cx="382.092" cy="670.693" rx="0.452189" ry="0.383456" fill="#C4C4C4"/>
<ellipse cx="298.889" cy="685.283" rx="0.452189" ry="0.383456" fill="#C4C4C4"/>
<ellipse cx="378.474" cy="695.265" rx="0.452189" ry="0.383456" fill="#C4C4C4"/>
<ellipse cx="1278.78" cy="677.221" rx="0.904378" ry="0.767878" fill="#C4C4C4"/>
<ellipse cx="1098.36" cy="897.985" rx="0.452189" ry="0.383456" fill="#C4C4C4"/>
<ellipse cx="211.617" cy="92.8652" rx="0.904378" ry="0.767878" fill="#C4C4C4"/>
<ellipse cx="202.573" cy="62.9185" rx="0.904378" ry="0.767878" fill="#C4C4C4"/>
<ellipse cx="149.666" cy="249.895" rx="0.452189" ry="0.383456" fill="#C4C4C4"/>
<ellipse cx="255.479" cy="279.075" rx="0.452189" ry="0.383456" fill="#C4C4C4"/>
<ellipse cx="333.255" cy="259.11" rx="0.452189" ry="0.383456" fill="#C4C4C4"/>
<ellipse cx="284.871" cy="307.104" rx="0.904378" ry="0.767878" fill="#C4C4C4"/>
<ellipse cx="212.069" cy="272.164" rx="0.452189" ry="0.383456" fill="#C4C4C4"/>
<ellipse cx="260.905" cy="45.6395" rx="0.452189" ry="0.383456" fill="#C4C4C4"/>
<ellipse cx="262.714" cy="178.483" rx="0.452189" ry="0.383456" fill="#C4C4C4"/>
<ellipse cx="151.475" cy="153.911" rx="0.452189" ry="0.383456" fill="#C4C4C4"/>
<ellipse cx="145.144" cy="103.231" rx="0.452189" ry="0.383456" fill="#C4C4C4"/>
<ellipse cx="145.144" cy="4.94232" rx="0.452189" ry="0.383456" fill="#C4C4C4"/>
<ellipse cx="252.766" cy="6.47788" rx="0.452189" ry="0.383456" fill="#C4C4C4"/>
<ellipse cx="1280.14" cy="842.698" rx="0.452189" ry="0.383456" fill="#C4C4C4"/>
<ellipse cx="1163.02" cy="755.544" rx="0.904378" ry="0.767878" fill="#C4C4C4"/>
<ellipse cx="317.881" cy="809.678" rx="0.452189" ry="0.383456" fill="#C4C4C4"/>
<ellipse cx="353.604" cy="794.706" rx="0.904378" ry="0.767878" fill="#C4C4C4"/>
<ellipse cx="324.211" cy="781.268" rx="0.452189" ry="0.383456" fill="#C4C4C4"/>
<ellipse cx="506.443" cy="776.276" rx="0.904378" ry="0.767878" fill="#C4C4C4"/>
<ellipse cx="605.925" cy="705.632" rx="0.904378" ry="0.767878" fill="#C4C4C4"/>
<ellipse cx="143.788" cy="668.006" rx="0.904378" ry="0.767878" fill="#C4C4C4"/>
<ellipse cx="45.2109" cy="823.117" rx="0.904378" ry="0.767878" fill="#C4C4C4"/>
<ellipse cx="80.4817" cy="807.76" rx="0.904378" ry="0.767878" fill="#C4C4C4"/>
<ellipse cx="1419.41" cy="1239.69" rx="0.452189" ry="0.383456" fill="#C4C4C4"/>
<ellipse cx="1396.8" cy="1175.96" rx="0.452189" ry="0.383456" fill="#C4C4C4"/>
<ellipse cx="121.179" cy="333.979" rx="0.904378" ry="0.767878" fill="#C4C4C4"/>
<ellipse cx="112.135" cy="304.032" rx="0.904378" ry="0.767878" fill="#C4C4C4"/>
<ellipse cx="110.778" cy="598.512" rx="0.452189" ry="0.383456" fill="#C4C4C4"/>
<ellipse cx="188.555" cy="665.318" rx="0.452189" ry="0.383456" fill="#C4C4C4"/>
<ellipse cx="294.367" cy="607.727" rx="0.452189" ry="0.383456" fill="#C4C4C4"/>
<ellipse cx="217.947" cy="693.346" rx="0.904378" ry="0.767878" fill="#C4C4C4"/>
<ellipse cx="145.144" cy="658.407" rx="0.452189" ry="0.383456" fill="#C4C4C4"/>
<ellipse cx="162.328" cy="316.702" rx="0.452189" ry="0.383456" fill="#C4C4C4"/>
<ellipse cx="1089.32" cy="516.349" rx="0.452189" ry="0.383456" fill="#C4C4C4"/>
<ellipse cx="1054.5" cy="544.378" rx="0.904378" ry="0.767878" fill="#C4C4C4"/>
<ellipse cx="1045.9" cy="509.439" rx="0.452189" ry="0.383456" fill="#C4C4C4"/>
<ellipse cx="985.312" cy="391.186" rx="0.452189" ry="0.383456" fill="#C4C4C4"/>
<ellipse cx="899.396" cy="389.65" rx="0.452189" ry="0.383456" fill="#C4C4C4"/>
<ellipse cx="890.352" cy="359.702" rx="0.452189" ry="0.383456" fill="#C4C4C4"/>
<ellipse cx="886.734" cy="384.275" rx="0.452189" ry="0.383456" fill="#C4C4C4"/>
<ellipse cx="805.34" cy="465.669" rx="0.452189" ry="0.383456" fill="#C4C4C4"/>
<ellipse cx="807.149" cy="526.332" rx="0.452189" ry="0.383456" fill="#C4C4C4"/>
<ellipse cx="955.015" cy="571.253" rx="0.904378" ry="0.767878" fill="#C4C4C4"/>
<ellipse cx="945.971" cy="541.306" rx="0.904378" ry="0.767878" fill="#C4C4C4"/>
<ellipse cx="996.164" cy="553.975" rx="0.452189" ry="0.383456" fill="#C4C4C4"/>
<ellipse cx="231.965" cy="497.152" rx="0.452189" ry="0.383456" fill="#C4C4C4"/>
<ellipse cx="120.726" cy="472.581" rx="0.452189" ry="0.383456" fill="#C4C4C4"/>
<ellipse cx="114.396" cy="421.901" rx="0.452189" ry="0.383456" fill="#C4C4C4"/>
<ellipse cx="1330.78" cy="1298.82" rx="0.452189" ry="0.383456" fill="#C4C4C4"/>
<ellipse cx="565.68" cy="428.043" rx="0.452189" ry="0.383456" fill="#C4C4C4"/>
<ellipse cx="732.086" cy="645.353" rx="0.452189" ry="0.383456" fill="#C4C4C4"/>
<ellipse cx="809.862" cy="712.158" rx="0.452189" ry="0.383456" fill="#C4C4C4"/>
<ellipse cx="1177.94" cy="654.568" rx="0.452189" ry="0.383456" fill="#C4C4C4"/>
<ellipse cx="853.273" cy="543.993" rx="0.452189" ry="0.383456" fill="#C4C4C4"/>
<ellipse cx="742.034" cy="519.421" rx="0.452189" ry="0.383456" fill="#C4C4C4"/>
<ellipse cx="735.703" cy="468.741" rx="0.452189" ry="0.383456" fill="#C4C4C4"/>
<ellipse cx="656.118" cy="517.885" rx="0.452189" ry="0.383456" fill="#C4C4C4"/>
<ellipse cx="643.457" cy="512.51" rx="0.452189" ry="0.383456" fill="#C4C4C4"/>
<ellipse cx="477.051" cy="487.17" rx="0.452189" ry="0.383456" fill="#C4C4C4"/>
<ellipse cx="665.614" cy="627.309" rx="0.904378" ry="0.767878" fill="#C4C4C4"/>
<ellipse cx="1364.7" cy="1095.71" rx="0.904378" ry="0.767878" fill="#C4C4C4"/>
<ellipse cx="51.5415" cy="794.706" rx="0.904378" ry="0.767878" fill="#C4C4C4"/>
<ellipse cx="1161.67" cy="779.732" rx="0.452189" ry="0.383456" fill="#C4C4C4"/>
<ellipse cx="1163.47" cy="840.394" rx="0.452189" ry="0.383456" fill="#C4C4C4"/>
<ellipse cx="1277.88" cy="841.547" rx="0.904378" ry="0.767878" fill="#C4C4C4"/>
<ellipse cx="1044.55" cy="803.921" rx="0.904378" ry="0.767878" fill="#C4C4C4"/>
<ellipse cx="1079.82" cy="788.563" rx="0.904378" ry="0.767878" fill="#C4C4C4"/>
<ellipse cx="517.296" cy="165.814" rx="0.904378" ry="0.767878" fill="#C4C4C4"/>
<ellipse cx="508.252" cy="135.867" rx="0.904378" ry="0.767878" fill="#C4C4C4"/>
<ellipse cx="638.935" cy="332.059" rx="0.452189" ry="0.383456" fill="#C4C4C4"/>
<ellipse cx="566.585" cy="118.589" rx="0.452189" ry="0.383456" fill="#C4C4C4"/>
<ellipse cx="568.394" cy="251.432" rx="0.452189" ry="0.383456" fill="#C4C4C4"/>
<ellipse cx="558.445" cy="79.4268" rx="0.452189" ry="0.383456" fill="#C4C4C4"/>
<ellipse cx="689.128" cy="159.67" rx="0.904378" ry="0.767878" fill="#C4C4C4"/>
<ellipse cx="760.574" cy="277.156" rx="0.904378" ry="0.767878" fill="#C4C4C4"/>
<ellipse cx="1049.07" cy="715.615" rx="0.904378" ry="0.767878" fill="#C4C4C4"/>
<ellipse cx="1289.18" cy="952.504" rx="0.452189" ry="0.383456" fill="#C4C4C4"/>
<ellipse cx="1169.35" cy="677.221" rx="0.904378" ry="0.767878" fill="#C4C4C4"/>
<ellipse cx="1252.1" cy="898.752" rx="0.452189" ry="0.383456" fill="#C4C4C4"/>
<ellipse cx="1125.94" cy="670.309" rx="0.904378" ry="0.767878" fill="#C4C4C4"/>
<ellipse cx="1337.57" cy="717.15" rx="0.904378" ry="0.767878" fill="#C4C4C4"/>
<ellipse cx="345.917" cy="15.693" rx="0.452189" ry="0.383456" fill="#C4C4C4"/>
<ellipse cx="264.07" cy="24.5247" rx="0.904378" ry="0.767878" fill="#C4C4C4"/>
<ellipse cx="974.459" cy="236.073" rx="0.452189" ry="0.383456" fill="#C4C4C4"/>
<ellipse cx="1004.3" cy="100.927" rx="0.452189" ry="0.383456" fill="#C4C4C4"/>
<ellipse cx="898.039" cy="93.633" rx="0.904378" ry="0.767878" fill="#C4C4C4"/>
<ellipse cx="932.406" cy="168.117" rx="0.904378" ry="0.767878" fill="#C4C4C4"/>
<ellipse cx="1178.4" cy="86.7221" rx="0.904378" ry="0.767878" fill="#C4C4C4"/>
<ellipse cx="1149.46" cy="73.6681" rx="0.904378" ry="0.767878" fill="#C4C4C4"/>
<ellipse cx="1062.64" cy="59.0787" rx="0.904378" ry="0.767878" fill="#C4C4C4"/>
<ellipse cx="1168" cy="249.128" rx="0.452189" ry="0.383456" fill="#C4C4C4"/>
</svg>
